<svg width="16" height="16" viewBox="0 0 16 16" fill="none" xmlns="http://www.w3.org/2000/svg">
<g clip-path="url(#clip0_3678_9221)">
<path fill-rule="evenodd" clip-rule="evenodd" d="M2.4 2.66675C1.07452 2.66675 0 3.74127 0 5.06675V10.9334C0 12.2589 1.07452 13.3334 2.4 13.3334H13.6C14.9255 13.3334 16 12.2589 16 10.9334V5.06675C16 3.74127 14.9255 2.66675 13.6 2.66675H2.4ZM4.95661 7.56389C4.72471 7.72058 4.45207 7.80421 4.17317 7.80421C3.79933 7.80388 3.44089 7.65358 3.17652 7.38631C2.91216 7.11903 2.76346 6.75661 2.76307 6.3786C2.76302 6.09658 2.84568 5.82088 3.00059 5.58636C3.15551 5.35185 3.37572 5.16905 3.63338 5.06109C3.89103 4.95313 4.17457 4.92486 4.44812 4.97985C4.72166 5.03484 4.97294 5.17062 5.17018 5.37002C5.36741 5.56942 5.50173 5.82349 5.55616 6.10008C5.61059 6.37668 5.58268 6.66339 5.47596 6.92394C5.36924 7.1845 5.1885 7.40721 4.95661 7.56389ZM4.70102 8.25122C5.20206 8.35708 5.66052 8.61156 6.01784 8.98217C6.29899 9.27429 6.50782 9.62951 6.62728 10.0188C6.70752 10.2706 6.74791 10.5337 6.74695 10.7982C6.74695 10.8644 6.72096 10.9279 6.67468 10.9747C6.62841 11.0215 6.56565 11.0477 6.50021 11.0477H1.84675C1.78131 11.0477 1.71856 11.0215 1.67228 10.9747C1.62601 10.9279 1.60002 10.8644 1.60002 10.7982C1.60025 10.2807 1.75306 9.77489 2.03893 9.34555C2.3248 8.9162 2.73075 8.58277 3.20492 8.38785C3.6791 8.19293 4.19998 8.14536 4.70102 8.25122ZM8.47835 5.38785C8.47835 5.1474 8.67327 4.95248 8.91371 4.95248H13.9647C14.2051 4.95248 14.4 5.1474 14.4 5.38785C14.4 5.6283 14.2051 5.82322 13.9647 5.82322H8.91371C8.67327 5.82322 8.47835 5.6283 8.47835 5.38785ZM8.91372 7.56464C8.67327 7.56464 8.47835 7.75956 8.47835 8.00001C8.47835 8.24045 8.67327 8.43537 8.91372 8.43537H13.9647C14.2051 8.43537 14.4 8.24045 14.4 8.00001C14.4 7.75956 14.2051 7.56464 13.9647 7.56464H8.91372ZM8.47835 10.6123C8.47835 10.3718 8.67327 10.1769 8.91372 10.1769H13.9647C14.2051 10.1769 14.4 10.3718 14.4 10.6123C14.4 10.8527 14.2051 11.0476 13.9647 11.0476H8.91372C8.67327 11.0476 8.47835 10.8527 8.47835 10.6123Z" fill="#616161"/>
</g>
<defs>
<clipPath id="clip0_3678_9221">
<rect width="16" height="16" fill="white"/>
</clipPath>
</defs>
</svg>
