<?xml version="1.0" encoding="utf-8"?><!-- Uploaded to: SVG Repo, www.svgrepo.com, Generator: SVG Repo Mixer Tools -->
<svg width="800px" height="800px" viewBox="0 0 24 24" fill="none" xmlns="http://www.w3.org/2000/svg">
<path fill-rule="evenodd" clip-rule="evenodd" d="M15.3442 5.39811C12.9087 3.13396 8.93592 3.13396 6.50035 5.39811C4.42306 7.3292 4.11365 10.3235 5.72875 12.5757L10.9223 19.8177L16.1158 12.5757C17.7309 10.3235 17.4215 7.3292 15.3442 5.39811ZM5.34288 4.15302C8.43091 1.28233 13.4137 1.28233 16.5017 4.15302C19.1919 6.65385 19.6221 10.6035 17.4973 13.5664L11.7508 21.5795L11.0601 21.0841L11.7508 21.5795C11.3462 22.1437 10.4984 22.1437 10.0937 21.5795L10.5987 21.2174L10.0937 21.5795L4.34727 13.5664C2.22248 10.6035 2.65271 6.65385 5.34288 4.15302Z" fill="#1C1C1C"/>
<circle cx="11" cy="9" r="2" fill="#1C1C1C"/>
</svg>