<svg viewBox="0 0 48 48" fill="none" xmlns="http://www.w3.org/2000/svg">
<path d="M0 24C0 10.7452 10.7452 0 24 0C37.2548 0 48 10.7452 48 24C48 37.2548 37.2548 48 24 48C10.7452 48 0 37.2548 0 24Z" fill="#EDEDED"/>
<path d="M17.0897 37.8239L10.1183 41.6578C9.71751 41.8832 9.3425 42.1522 9 42.4602C13.1947 46.0243 18.5002 47.9856 23.9858 47.9999C29.4715 48.0143 34.787 46.0808 39 42.5387C38.6248 42.2135 38.2122 41.9349 37.7711 41.7088L30.3091 37.9456C29.8361 37.7073 29.4383 37.3408 29.1603 36.8873C28.8823 36.4338 28.7351 35.9113 28.7352 35.3781V32.4252C28.986 32.1324 29.2217 31.8268 29.4416 31.5097C30.4485 30.0677 31.2311 28.4791 31.7622 26.7988C32.2416 26.6517 32.6617 26.3536 32.9607 25.9482C33.2598 25.5428 33.4222 25.0515 33.4241 24.5462V21.3946C33.4229 21.0647 33.353 20.7387 33.2188 20.4378C33.0846 20.1368 32.8893 19.8676 32.6454 19.6477V15.0938C32.6454 15.0938 33.569 8 24.044 8C14.519 8 15.4481 15.0907 15.4481 15.0907V19.6445C15.2039 19.8643 15.0084 20.1334 14.8742 20.4344C14.74 20.7354 14.6702 21.0615 14.6693 21.3915V24.5439C14.6698 24.9393 14.7686 25.3282 14.9568 25.6751C15.1449 26.022 15.4164 26.3158 15.7464 26.5295C16.2655 28.6738 17.2289 30.6831 18.5732 32.4252V35.3051C18.5728 35.8205 18.4348 36.3263 18.1738 36.7695C17.9128 37.2126 17.5384 37.5768 17.0897 37.8239Z" fill="#C2C2C2"/>
</svg>
