<svg width="128" height="128" viewBox="0 0 128 128" fill="none" xmlns="http://www.w3.org/2000/svg">
<path d="M30.1219 74.7625L41.1919 63.59C41.2434 63.5257 41.3104 63.4755 41.3865 63.4441C41.4627 63.4128 41.5456 63.4012 41.6275 63.4107C41.7102 63.4138 41.7914 63.4335 41.8662 63.4687C41.9411 63.504 42.008 63.5539 42.0631 63.6157L49.4431 71.4313C49.9202 71.9387 50.4958 72.3436 51.1347 72.6212C51.7735 72.8987 52.4622 73.0432 53.1588 73.0457C53.8553 73.0432 54.544 72.8987 55.1828 72.6212C55.8217 72.3436 56.3973 71.9387 56.8744 71.4313L72.7106 54.5444C72.8234 54.4436 72.9694 54.3878 73.1206 54.3878C73.2719 54.3878 73.4179 54.4436 73.5306 54.5444L98.1819 73.7631L101.359 69.6375L76.8106 50.4188C75.6839 49.5428 74.2701 49.1201 72.8475 49.2339C71.4248 49.3477 70.0963 49.9898 69.1231 51.0338L53.3125 67.9207L45.9837 60.105C45.4593 59.5397 44.8255 59.0869 44.1206 58.7742C43.4158 58.4614 42.6548 58.2952 41.8838 58.2857C41.1125 58.2656 40.3455 58.4056 39.631 58.6966C38.9166 58.9877 38.2702 59.4236 37.7325 59.9769L26.6625 71.1494L30.1219 74.7625Z" fill="#C2C2C2"/>
<path d="M35.6075 102.438H92.3925C95.0566 102.438 97.6116 101.379 99.4954 99.4954C101.379 97.6116 102.438 95.0566 102.438 92.3925V35.6075C102.438 32.9434 101.379 30.3884 99.4954 28.5046C97.6116 26.6208 95.0566 25.5625 92.3925 25.5625H35.6075C32.9434 25.5625 30.3884 26.6208 28.5046 28.5046C26.6208 30.3884 25.5625 32.9434 25.5625 35.6075V92.3925C25.5625 95.0566 26.6208 97.6116 28.5046 99.4954C30.3884 101.379 32.9434 102.438 35.6075 102.438ZM92.3925 30.6875C93.6974 30.6875 94.9488 31.2059 95.8715 32.1285C96.7941 33.0512 97.3125 34.3026 97.3125 35.6075V92.3925C97.3125 93.0386 97.1852 93.6784 96.938 94.2753C96.6907 94.8722 96.3283 95.4146 95.8715 95.8715C95.4146 96.3283 94.8722 96.6907 94.2753 96.938C93.6784 97.1852 93.0386 97.3125 92.3925 97.3125H35.6075C34.9614 97.3125 34.3216 97.1852 33.7247 96.938C33.1278 96.6907 32.5854 96.3283 32.1285 95.8715C31.6717 95.4146 31.3093 94.8722 31.062 94.2753C30.8148 93.6784 30.6875 93.0386 30.6875 92.3925V35.6075C30.6875 34.9614 30.8148 34.3216 31.062 33.7247C31.3093 33.1278 31.6717 32.5854 32.1285 32.1285C32.5854 31.6717 33.1278 31.3093 33.7247 31.062C34.3216 30.8148 34.9614 30.6875 35.6075 30.6875H92.3925Z" fill="#C2C2C2"/>
<path d="M52.9062 53.3144C50.0758 53.3144 47.7812 51.0199 47.7812 48.1894C47.7812 45.3589 50.0758 43.0644 52.9062 43.0644C55.7367 43.0644 58.0312 45.3589 58.0312 48.1894C58.0312 51.0199 55.7367 53.3144 52.9062 53.3144Z" fill="#C2C2C2"/>
<path d="M99.875 72.9687L75.4544 53.3144L70.9444 52.7762L56.1588 68.5612C56.1588 68.5612 53.5962 72.0719 51.4181 69.6631L44.0637 61.8475C44.0637 61.8475 42.6031 58.6444 39.4769 61.8475C36.3506 65.0506 28.125 75.5312 28.125 75.5312L28.3044 94.0581C28.3044 94.0581 29.0731 99.875 36.6069 99.875C44.1406 99.875 92.9819 99.0806 92.9819 99.0806C92.9819 99.0806 99.875 100.772 99.875 92.3925C99.875 84.0131 99.875 72.9687 99.875 72.9687Z" fill="#C2C2C2"/>
<rect x="0.5" y="0.5" width="127" height="127" rx="7.5" stroke="#9E9E9E" stroke-dasharray="2 2"/>
</svg>
